<?xml version="1.0" encoding="UTF-8" standalone="no"?>
<!-- Created with Inkscape (http://www.inkscape.org/) -->

<svg
   width="50mm"
   height="70mm"
   viewBox="0 0 50 70"
   version="1.1"
   id="svg12"
   inkscape:version="1.1.1 (eb90963e84, 2021-10-02)"
   sodipodi:docname="world.hpgl"
   xmlns:inkscape="http://www.inkscape.org/namespaces/inkscape"
   xmlns:sodipodi="http://sodipodi.sourceforge.net/DTD/sodipodi-0.dtd"
   xmlns="http://www.w3.org/2000/svg"
   xmlns:svg="http://www.w3.org/2000/svg">
  <sodipodi:namedview
     id="namedview14"
     pagecolor="#ffffff"
     bordercolor="#666666"
     borderopacity="1.0"
     inkscape:pageshadow="2"
     inkscape:pageopacity="0.0"
     inkscape:pagecheckerboard="0"
     inkscape:document-units="mm"
     showgrid="false"
     width="50mm"
     inkscape:zoom="1.5037598"
     inkscape:cx="48.544986"
     inkscape:cy="100.74747"
     inkscape:window-width="1848"
     inkscape:window-height="1016"
     inkscape:window-x="72"
     inkscape:window-y="27"
     inkscape:window-maximized="1"
     inkscape:current-layer="layer1" />
  <defs
     id="defs9" />
  <g
     inkscape:label="Layer 1"
     inkscape:groupmode="layer"
     id="layer1">
    <path
       style="fill:#488897;stroke:none;stroke-width:0.0880686"
       d="m 26.795121,34.80913 v 0.08921 c 0.773177,0.432442 -0.787176,0.882655 -1.13025,1.02432 -0.804825,0.332314 -1.840221,0.278512 -2.695212,0.496093 -0.554952,0.141219 -0.973753,0.437885 -1.564961,0.352984 l 0.869423,-1.070513 -1.651904,-0.307826 -1.651903,0.575455 v 0.08921 c 0.556865,0.07221 1.10208,0.06085 1.478019,0.535256 l -1.999673,0.535257 0.347769,-0.535257 c -0.943672,0.04425 -1.468629,0.621968 -2.2605,1.032448 -0.527305,0.273364 -1.037656,0.364893 -1.217192,1.019369 l 0.608596,-0.178419 -0.173884,0.535257 1.999325,-1.584574 1.304482,0.157223 c 0.124762,0.405287 0.398457,0.436511 0.782481,0.446047 -0.03304,0.78994 -0.200228,1.556704 -1.13025,1.338141 l 0.260827,-0.535256 c -0.737358,-0.223639 -1.120599,0.05624 -1.478019,0.713675 l 0.78248,-0.178419 c -0.230223,0.798424 -1.483322,0.8689 -2.086615,1.375966 -0.630505,0.530082 -0.977057,1.127339 -1.507605,1.720939 -0.297934,0.333286 -0.721717,0.592261 -0.924362,1.006728 -0.196298,0.401532 -0.157322,0.98621 -0.263244,1.427351 -0.24376,-0.264952 -0.194055,-0.889061 -0.53453,-1.008334 -1.278739,-0.447921 -2.688222,2.55576 -1.639028,3.149359 l 0.956366,-1.338141 -0.695539,1.694979 0.869423,0.08921 c -0.182474,0.656492 -0.493701,1.381675 0.260827,1.784188 l 0.08694,-0.356837 0.608596,0.446047 -0.08694,0.08921 -0.521653,-0.178419 c -0.116503,0.19751 -0.252576,0.39716 -0.494415,0.21892 -0.394718,-0.290912 -0.417375,-0.869792 -0.680115,-1.251608 -0.383756,-0.557559 -0.982788,-0.899945 -1.520683,-1.286757 -0.08959,1.155173 -0.434042,2.316947 -0.434042,3.479167 0,3.000737 1.04369,6.270084 2.672408,8.742523 5.694164,8.643945 18.225853,9.226126 24.660191,1.159722 2.637743,-3.306725 3.774774,-7.655952 3.283898,-11.864852 -0.200054,-1.71514 -0.895593,-4.111037 -2.708687,-4.728099 -0.2397,1.315126 2.357962,2.03451 1.338911,3.462753 -0.171711,0.240776 -0.658936,0.648909 -0.967842,0.465405 -0.342987,-0.203665 -0.176058,-0.914307 -0.371852,-1.251875 -0.566516,-0.976665 -1.482453,-1.613531 -1.821267,-2.765492 -0.138847,-0.472096 -0.06269,-1.276854 -0.402717,-1.649125 -0.287779,-0.315088 -0.736053,-0.124537 -1.069651,-0.31598 -0.314557,-0.180471 -0.343944,-0.616259 -0.647198,-0.796194 -0.608857,-0.361298 -0.27213,0.500554 -0.144672,0.709482 -0.917329,-0.492435 -1.488018,-1.7659 -2.608269,-1.984195 -0.977058,-0.190462 -1.796054,1.317177 -2.695212,1.390239 -0.514524,0.04175 -0.944454,-0.664967 -0.501483,-1.038308 0.395501,-0.333287 0.991055,-0.153262 1.457849,-0.151924 L 28.27314,39.001975 c 1.446372,-1.267372 3.150093,-0.368007 4.694884,-1.338142 v -0.08921 c -1.02731,0.195003 -1.663902,-1.174585 -1.651904,0.446047 -0.293082,-0.03102 -1.90934,-0.820896 -1.673465,-1.103761 0.163103,-0.195699 1.549138,-0.225085 1.84735,-0.229492 0.837254,-0.01237 1.685463,0.765016 2.521326,0.976415 -0.420627,-0.470909 -1.028875,-0.756272 -1.564961,-1.070441 -1.640514,-0.961446 -3.743909,-1.743857 -5.651249,-1.78426 m 9.215883,5.709403 0.08694,0.535256 c 0.496354,-0.154778 0.388806,-0.497164 -0.08694,-0.535256 m -22.083343,0.624465 0.347769,0.356838 v -0.356838 h -0.347769 m 17.388459,0.892095 -0.347769,0.08921 v 0.08921 l 0.956017,0.180917 0.956713,0.978806 c 0.02521,-1.20968 0.622768,-0.837766 1.391077,-0.493507 0.314992,0.14104 0.659718,0.146393 0.90307,0.424637 0.735532,0.840799 0.834907,1.93977 1.157724,2.923571 0.16006,0.487886 0.571297,0.909222 0.840732,1.338141 0.169972,0.270483 0.241091,1.008156 0.516785,1.144468 0.241351,0.119273 0.734053,-0.153976 1.015746,-0.163164 -0.0076,0.923852 -0.259435,1.97688 -0.736227,2.765491 -0.260827,0.431417 -0.670934,0.763098 -0.842645,1.248932 -0.364114,1.030012 -0.0024,2.160117 -0.200663,3.211539 -0.121023,0.641683 -0.607639,0.989511 -0.925066,1.51656 -0.285518,0.47397 -0.329511,1.029566 -0.641373,1.51656 -0.437494,0.683433 -1.812399,3.077635 -2.894048,2.406067 -0.585122,-0.363262 -0.430538,-2.143168 -0.457925,-2.762906 -0.0293,-0.661042 -0.351421,-1.295142 -0.311428,-1.962607 0.03991,-0.667554 0.534174,-1.205844 0.473314,-1.873398 -0.0679,-0.744363 -0.523914,-1.34269 -0.700929,-2.051816 -0.147541,-0.590923 -0.06616,-1.26722 -0.06616,-1.873398 -0.63407,-0.0157 -0.867075,-0.622146 -1.394467,-0.684504 -0.271173,-0.03203 -0.457838,0.222489 -0.692148,0.31152 -0.425669,0.161647 -1.606346,0.316782 -1.996195,0.05156 -0.539825,-0.367364 -0.632418,-1.009225 -0.907938,-1.551975 -0.203184,-0.400194 -0.559213,-0.721972 -0.690757,-1.159723 -0.20388,-0.678616 -0.01626,-2.493046 0.290387,-3.122329 0.272564,-0.559343 0.759702,-0.91404 1.07852,-1.427351 0.237439,-0.382083 0.208748,-0.866312 0.542259,-1.210214 0.31247,-0.322225 0.773612,-0.161559 1.16207,-0.252285 0.714492,-0.16691 2.312231,-0.964978 2.521327,0.391987 m -12.86746,9.902244 c 1.259794,0.06994 2.002455,1.647341 3.303807,1.605769 -6.08e-4,0.924834 -0.617986,1.325117 -0.762658,2.141026 -0.140759,0.794499 0.258915,1.926834 -0.163538,2.647914 -0.224659,0.383511 -0.820648,0.09171 -1.071042,0.499305 -0.310819,0.505728 -0.09459,1.282385 -0.436711,1.848508 -0.380112,0.629016 -1.16607,1.017523 -1.459153,1.694979 -0.34064,0.787362 0.673107,1.834146 1.371776,1.873398 v 0.178419 c -0.744838,-0.01793 -1.228063,-0.461302 -1.738762,-0.981661 -0.861946,-0.878088 -1.540705,-2.067428 -1.786751,-3.300391 -0.156757,-0.7854 -0.116068,-1.642881 -0.348465,-2.408654 -0.237005,-0.781118 -1.112696,-1.191749 -1.515978,-1.873398 -0.24636,-0.416429 -0.191586,-0.909668 -0.385937,-1.338141 -0.390058,-0.859979 -1.019086,-1.150623 -0.789732,-2.230235 0.109348,-0.514739 0.562612,-0.831967 0.691983,-1.338141 0.129144,-0.505193 -0.133326,-1.045981 0.108347,-1.51656 0.936995,-1.824511 2.650497,-0.283776 3.678677,0.496896 0.378894,0.2877 0.857946,0.314909 1.129467,0.755871 0.226659,0.368257 0.174667,0.829291 0.174667,1.245096 m 14.886956,-3.140082 c -0.388545,0.149604 -0.150323,0.719117 0.229441,0.583162 0.405933,-0.145322 0.162234,-0.733926 -0.229441,-0.583162 m -16.312549,6.358936 c -0.18284,0.136134 -0.03043,0.450597 0.184144,0.334268 0.250394,-0.135866 0.04321,-0.503498 -0.184144,-0.334268 m 20.98761,0.08189 c -0.08042,1.036792 -0.364549,2.298035 -1.217192,2.943911 l -0.08694,-0.892094 z"
       id="path3659" />
  </g>
</svg>
